<?xml version="1.0" encoding="UTF-8"?>
<svg xmlns="http://www.w3.org/2000/svg" xmlns:xlink="http://www.w3.org/1999/xlink"
     width="800" height="800" viewBox="0 0 800 800">
<defs>
</defs>
<path d="M95,94 L96,94" stroke="blue" stroke-width="3" fill="none" marker-end="" />
<path d="M11,65 L12,66" stroke="blue" stroke-width="3" fill="none" marker-end="" />
<path d="M39,41 L40,40" stroke="blue" stroke-width="3" fill="none" marker-end="" />
<path d="M79,4 L80,3" stroke="blue" stroke-width="3" fill="none" marker-end="" />
<path d="M18,66 L19,64" stroke="blue" stroke-width="3" fill="none" marker-end="" />
<path d="M23,19 L24,21" stroke="blue" stroke-width="3" fill="none" marker-end="" />
<path d="M22,69 L25,69" stroke="blue" stroke-width="3" fill="none" marker-end="" />
<path d="M53,24 L54,27" stroke="blue" stroke-width="3" fill="none" marker-end="" />
<path d="M87,41 L88,44" stroke="blue" stroke-width="3" fill="none" marker-end="" />
<path d="M48,96 L50,93" stroke="blue" stroke-width="3" fill="none" marker-end="" />
<path d="M55,93 L57,96" stroke="blue" stroke-width="3" fill="none" marker-end="" />
<path d="M32,12 L36,12" stroke="blue" stroke-width="3" fill="none" marker-end="" />
<path d="M83,41 L87,41" stroke="blue" stroke-width="3" fill="none" marker-end="" />
<path d="M87,41 L91,41" stroke="blue" stroke-width="3" fill="none" marker-end="" />
<path d="M20,22 L24,21" stroke="blue" stroke-width="3" fill="none" marker-end="" />
<path d="M26,40 L30,41" stroke="blue" stroke-width="3" fill="none" marker-end="" />
<path d="M81,74 L85,75" stroke="blue" stroke-width="3" fill="none" marker-end="" />
<path d="M83,41 L84,45" stroke="blue" stroke-width="3" fill="none" marker-end="" />
<path d="M91,41 L92,37" stroke="blue" stroke-width="3" fill="none" marker-end="" />
<path d="M16,61 L19,64" stroke="blue" stroke-width="3" fill="none" marker-end="" />
<path d="M29,15 L32,12" stroke="blue" stroke-width="3" fill="none" marker-end="" />
<path d="M2,93 L6,95" stroke="blue" stroke-width="3" fill="none" marker-end="" />
<path d="M4,35 L8,37" stroke="blue" stroke-width="3" fill="none" marker-end="" />
<path d="M7,25 L9,29" stroke="blue" stroke-width="3" fill="none" marker-end="" />
<path d="M18,66 L22,69" stroke="blue" stroke-width="3" fill="none" marker-end="" />
<path d="M34,65 L38,68" stroke="blue" stroke-width="3" fill="none" marker-end="" />
<path d="M50,93 L55,93" stroke="blue" stroke-width="3" fill="none" marker-end="" />
<path d="M52,83 L56,86" stroke="blue" stroke-width="3" fill="none" marker-end="" />
<path d="M62,87 L65,83" stroke="blue" stroke-width="3" fill="none" marker-end="" />
<path d="M63,40 L66,44" stroke="blue" stroke-width="3" fill="none" marker-end="" />
<path d="M76,0 L79,4" stroke="blue" stroke-width="3" fill="none" marker-end="" />
<path d="M26,40 L27,35" stroke="blue" stroke-width="3" fill="none" marker-end="" />
<path d="M47,84 L52,83" stroke="blue" stroke-width="3" fill="none" marker-end="" />
<path d="M63,40 L64,35" stroke="blue" stroke-width="3" fill="none" marker-end="" />
<path d="M38,68 L43,70" stroke="blue" stroke-width="3" fill="none" marker-end="" />
<path d="M44,30 L46,35" stroke="blue" stroke-width="3" fill="none" marker-end="" />
<path d="M70,79 L72,84" stroke="blue" stroke-width="3" fill="none" marker-end="" />
<path d="M58,43 L63,40" stroke="blue" stroke-width="3" fill="none" marker-end="" />
<path d="M12,66 L18,66" stroke="blue" stroke-width="3" fill="none" marker-end="" />
<path d="M13,49 L14,43" stroke="blue" stroke-width="3" fill="none" marker-end="" />
<path d="M36,12 L42,13" stroke="blue" stroke-width="3" fill="none" marker-end="" />
<path d="M56,86 L62,87" stroke="blue" stroke-width="3" fill="none" marker-end="" />
<path d="M73,43 L74,49" stroke="blue" stroke-width="3" fill="none" marker-end="" />
<path d="M88,44 L89,50" stroke="blue" stroke-width="3" fill="none" marker-end="" />
<path d="M10,72 L12,66" stroke="blue" stroke-width="3" fill="none" marker-end="" />
<path d="M62,87 L68,89" stroke="blue" stroke-width="3" fill="none" marker-end="" />
<path d="M98,48 L100,42" stroke="blue" stroke-width="3" fill="none" marker-end="" />
<path d="M65,83 L70,79" stroke="blue" stroke-width="3" fill="none" marker-end="" />
<path d="M72,84 L77,88" stroke="blue" stroke-width="3" fill="none" marker-end="" />
<path d="M78,80 L81,74" stroke="blue" stroke-width="3" fill="none" marker-end="" />
<path d="M79,4 L82,10" stroke="blue" stroke-width="3" fill="none" marker-end="" />
<path d="M86,34 L92,37" stroke="blue" stroke-width="3" fill="none" marker-end="" />
<path d="M3,72 L10,72" stroke="blue" stroke-width="3" fill="none" marker-end="" />
<path d="M54,27 L61,27" stroke="blue" stroke-width="3" fill="none" marker-end="" />
<path d="M55,93 L56,86" stroke="blue" stroke-width="3" fill="none" marker-end="" />
<path d="M66,44 L73,43" stroke="blue" stroke-width="3" fill="none" marker-end="" />
<path d="M90,99 L95,94" stroke="blue" stroke-width="3" fill="none" marker-end="" />
<path d="M23,19 L29,15" stroke="blue" stroke-width="3" fill="none" marker-end="" />
<path d="M72,84 L78,80" stroke="blue" stroke-width="3" fill="none" marker-end="" />
<path d="M8,37 L15,35" stroke="blue" stroke-width="3" fill="none" marker-end="" />
<path d="M21,83 L28,81" stroke="blue" stroke-width="3" fill="none" marker-end="" />
<path d="M37,48 L39,41" stroke="blue" stroke-width="3" fill="none" marker-end="" />
<path d="M28,81 L31,74" stroke="blue" stroke-width="3" fill="none" marker-end="" />
<path d="M41,99 L48,96" stroke="blue" stroke-width="3" fill="none" marker-end="" />
<path d="M42,13 L45,20" stroke="blue" stroke-width="3" fill="none" marker-end="" />
<path d="M1,20 L7,25" stroke="blue" stroke-width="3" fill="none" marker-end="" />
<path d="M4,35 L9,29" stroke="blue" stroke-width="3" fill="none" marker-end="" />
<path d="M25,69 L31,74" stroke="blue" stroke-width="3" fill="none" marker-end="" />
<path d="M40,40 L46,35" stroke="blue" stroke-width="3" fill="none" marker-end="" />
<path d="M69,71 L75,66" stroke="blue" stroke-width="3" fill="none" marker-end="" />
<path d="M14,43 L15,35" stroke="blue" stroke-width="3" fill="none" marker-end="" />
<path d="M69,71 L70,79" stroke="blue" stroke-width="3" fill="none" marker-end="" />
<path d="M58,43 L60,51" stroke="blue" stroke-width="3" fill="none" marker-end="" />
<path d="M93,26 L99,32" stroke="blue" stroke-width="3" fill="none" marker-end="" />
<path d="M61,27 L64,35" stroke="blue" stroke-width="3" fill="none" marker-end="" />
<path d="M92,37 L99,32" stroke="blue" stroke-width="3" fill="none" marker-end="" />
<path d="M27,35 L35,31" stroke="blue" stroke-width="3" fill="none" marker-end="" />
<path d="M45,20 L53,24" stroke="blue" stroke-width="3" fill="none" marker-end="" />
<path d="M30,41 L39,41" stroke="blue" stroke-width="3" fill="none" marker-end="" />
<path d="M32,12 L33,3" stroke="blue" stroke-width="3" fill="none" marker-end="" />
<path d="M91,41 L100,42" stroke="blue" stroke-width="3" fill="none" marker-end="" />
<path d="M31,74 L38,68" stroke="blue" stroke-width="3" fill="none" marker-end="" />
<path d="M5,54 L13,49" stroke="blue" stroke-width="3" fill="none" marker-end="" />
<path d="M59,10 L67,15" stroke="blue" stroke-width="3" fill="none" marker-end="" />
<path d="M44,30 L45,20" stroke="blue" stroke-width="3" fill="none" marker-end="" />
<path d="M61,27 L71,25" stroke="blue" stroke-width="3" fill="none" marker-end="" />
<path d="M73,43 L83,41" stroke="blue" stroke-width="3" fill="none" marker-end="" />
<path d="M67,15 L71,25" stroke="blue" stroke-width="3" fill="none" marker-end="" />
<path d="M6,95 L17,97" stroke="blue" stroke-width="3" fill="none" marker-end="" />
<path d="M15,35 L27,35" stroke="blue" stroke-width="3" fill="none" marker-end="" />
<path d="M43,70 L51,61" stroke="blue" stroke-width="3" fill="none" marker-end="" />
<path d="M85,75 L97,76" stroke="blue" stroke-width="3" fill="none" marker-end="" />
<path d="M13,49 L16,61" stroke="blue" stroke-width="3" fill="none" marker-end="" />
<path d="M82,10 L94,6" stroke="blue" stroke-width="3" fill="none" marker-end="" />
<path d="M49,1 L59,10" stroke="blue" stroke-width="3" fill="none" marker-end="" />
<path d="M17,97 L21,83" stroke="blue" stroke-width="3" fill="none" marker-end="" />
<path d="M43,70 L47,84" stroke="blue" stroke-width="3" fill="none" marker-end="" />
<path d="M67,15 L82,10" stroke="blue" stroke-width="3" fill="none" marker-end="" />
<path d="M77,88 L90,99" stroke="blue" stroke-width="3" fill="none" marker-end="" />
<circle cx="1" cy="20" r="2" fill="red" stroke-width="2" stroke="black" />
<circle cx="2" cy="93" r="2" fill="red" stroke-width="2" stroke="black" />
<circle cx="3" cy="72" r="2" fill="red" stroke-width="2" stroke="black" />
<circle cx="4" cy="35" r="2" fill="red" stroke-width="2" stroke="black" />
<circle cx="5" cy="54" r="2" fill="red" stroke-width="2" stroke="black" />
<circle cx="6" cy="95" r="2" fill="red" stroke-width="2" stroke="black" />
<circle cx="7" cy="25" r="2" fill="red" stroke-width="2" stroke="black" />
<circle cx="8" cy="37" r="2" fill="red" stroke-width="2" stroke="black" />
<circle cx="9" cy="29" r="2" fill="red" stroke-width="2" stroke="black" />
<circle cx="10" cy="72" r="2" fill="red" stroke-width="2" stroke="black" />
<circle cx="11" cy="65" r="2" fill="red" stroke-width="2" stroke="black" />
<circle cx="12" cy="66" r="2" fill="red" stroke-width="2" stroke="black" />
<circle cx="13" cy="49" r="2" fill="red" stroke-width="2" stroke="black" />
<circle cx="14" cy="43" r="2" fill="red" stroke-width="2" stroke="black" />
<circle cx="15" cy="35" r="2" fill="red" stroke-width="2" stroke="black" />
<circle cx="16" cy="61" r="2" fill="red" stroke-width="2" stroke="black" />
<circle cx="17" cy="97" r="2" fill="red" stroke-width="2" stroke="black" />
<circle cx="18" cy="66" r="2" fill="red" stroke-width="2" stroke="black" />
<circle cx="19" cy="64" r="2" fill="red" stroke-width="2" stroke="black" />
<circle cx="20" cy="22" r="2" fill="red" stroke-width="2" stroke="black" />
<circle cx="21" cy="83" r="2" fill="red" stroke-width="2" stroke="black" />
<circle cx="22" cy="69" r="2" fill="red" stroke-width="2" stroke="black" />
<circle cx="23" cy="19" r="2" fill="red" stroke-width="2" stroke="black" />
<circle cx="24" cy="21" r="2" fill="red" stroke-width="2" stroke="black" />
<circle cx="25" cy="69" r="2" fill="red" stroke-width="2" stroke="black" />
<circle cx="26" cy="40" r="2" fill="red" stroke-width="2" stroke="black" />
<circle cx="27" cy="35" r="2" fill="red" stroke-width="2" stroke="black" />
<circle cx="28" cy="81" r="2" fill="red" stroke-width="2" stroke="black" />
<circle cx="29" cy="15" r="2" fill="red" stroke-width="2" stroke="black" />
<circle cx="30" cy="41" r="2" fill="red" stroke-width="2" stroke="black" />
<circle cx="31" cy="74" r="2" fill="red" stroke-width="2" stroke="black" />
<circle cx="32" cy="12" r="2" fill="red" stroke-width="2" stroke="black" />
<circle cx="33" cy="3" r="2" fill="red" stroke-width="2" stroke="black" />
<circle cx="34" cy="65" r="2" fill="red" stroke-width="2" stroke="black" />
<circle cx="35" cy="31" r="2" fill="red" stroke-width="2" stroke="black" />
<circle cx="36" cy="12" r="2" fill="red" stroke-width="2" stroke="black" />
<circle cx="37" cy="48" r="2" fill="red" stroke-width="2" stroke="black" />
<circle cx="38" cy="68" r="2" fill="red" stroke-width="2" stroke="black" />
<circle cx="39" cy="41" r="2" fill="red" stroke-width="2" stroke="black" />
<circle cx="40" cy="40" r="2" fill="red" stroke-width="2" stroke="black" />
<circle cx="41" cy="99" r="2" fill="red" stroke-width="2" stroke="black" />
<circle cx="42" cy="13" r="2" fill="red" stroke-width="2" stroke="black" />
<circle cx="43" cy="70" r="2" fill="red" stroke-width="2" stroke="black" />
<circle cx="44" cy="30" r="2" fill="red" stroke-width="2" stroke="black" />
<circle cx="45" cy="20" r="2" fill="red" stroke-width="2" stroke="black" />
<circle cx="46" cy="35" r="2" fill="red" stroke-width="2" stroke="black" />
<circle cx="47" cy="84" r="2" fill="red" stroke-width="2" stroke="black" />
<circle cx="48" cy="96" r="2" fill="red" stroke-width="2" stroke="black" />
<circle cx="49" cy="1" r="2" fill="red" stroke-width="2" stroke="black" />
<circle cx="50" cy="93" r="2" fill="red" stroke-width="2" stroke="black" />
<circle cx="51" cy="61" r="2" fill="red" stroke-width="2" stroke="black" />
<circle cx="52" cy="83" r="2" fill="red" stroke-width="2" stroke="black" />
<circle cx="53" cy="24" r="2" fill="red" stroke-width="2" stroke="black" />
<circle cx="54" cy="27" r="2" fill="red" stroke-width="2" stroke="black" />
<circle cx="55" cy="93" r="2" fill="red" stroke-width="2" stroke="black" />
<circle cx="56" cy="86" r="2" fill="red" stroke-width="2" stroke="black" />
<circle cx="57" cy="96" r="2" fill="red" stroke-width="2" stroke="black" />
<circle cx="58" cy="43" r="2" fill="red" stroke-width="2" stroke="black" />
<circle cx="59" cy="10" r="2" fill="red" stroke-width="2" stroke="black" />
<circle cx="60" cy="51" r="2" fill="red" stroke-width="2" stroke="black" />
<circle cx="61" cy="27" r="2" fill="red" stroke-width="2" stroke="black" />
<circle cx="62" cy="87" r="2" fill="red" stroke-width="2" stroke="black" />
<circle cx="63" cy="40" r="2" fill="red" stroke-width="2" stroke="black" />
<circle cx="64" cy="35" r="2" fill="red" stroke-width="2" stroke="black" />
<circle cx="65" cy="83" r="2" fill="red" stroke-width="2" stroke="black" />
<circle cx="66" cy="44" r="2" fill="red" stroke-width="2" stroke="black" />
<circle cx="67" cy="15" r="2" fill="red" stroke-width="2" stroke="black" />
<circle cx="68" cy="89" r="2" fill="red" stroke-width="2" stroke="black" />
<circle cx="69" cy="71" r="2" fill="red" stroke-width="2" stroke="black" />
<circle cx="70" cy="79" r="2" fill="red" stroke-width="2" stroke="black" />
<circle cx="71" cy="25" r="2" fill="red" stroke-width="2" stroke="black" />
<circle cx="72" cy="84" r="2" fill="red" stroke-width="2" stroke="black" />
<circle cx="73" cy="43" r="2" fill="red" stroke-width="2" stroke="black" />
<circle cx="74" cy="49" r="2" fill="red" stroke-width="2" stroke="black" />
<circle cx="75" cy="66" r="2" fill="red" stroke-width="2" stroke="black" />
<circle cx="76" cy="0" r="2" fill="red" stroke-width="2" stroke="black" />
<circle cx="77" cy="88" r="2" fill="red" stroke-width="2" stroke="black" />
<circle cx="78" cy="80" r="2" fill="red" stroke-width="2" stroke="black" />
<circle cx="79" cy="4" r="2" fill="red" stroke-width="2" stroke="black" />
<circle cx="80" cy="3" r="2" fill="red" stroke-width="2" stroke="black" />
<circle cx="81" cy="74" r="2" fill="red" stroke-width="2" stroke="black" />
<circle cx="82" cy="10" r="2" fill="red" stroke-width="2" stroke="black" />
<circle cx="83" cy="41" r="2" fill="red" stroke-width="2" stroke="black" />
<circle cx="84" cy="45" r="2" fill="red" stroke-width="2" stroke="black" />
<circle cx="85" cy="75" r="2" fill="red" stroke-width="2" stroke="black" />
<circle cx="86" cy="34" r="2" fill="red" stroke-width="2" stroke="black" />
<circle cx="87" cy="41" r="2" fill="red" stroke-width="2" stroke="black" />
<circle cx="88" cy="44" r="2" fill="red" stroke-width="2" stroke="black" />
<circle cx="89" cy="50" r="2" fill="red" stroke-width="2" stroke="black" />
<circle cx="90" cy="99" r="2" fill="red" stroke-width="2" stroke="black" />
<circle cx="91" cy="41" r="2" fill="red" stroke-width="2" stroke="black" />
<circle cx="92" cy="37" r="2" fill="red" stroke-width="2" stroke="black" />
<circle cx="93" cy="26" r="2" fill="red" stroke-width="2" stroke="black" />
<circle cx="94" cy="6" r="2" fill="red" stroke-width="2" stroke="black" />
<circle cx="95" cy="94" r="2" fill="red" stroke-width="2" stroke="black" />
<circle cx="96" cy="94" r="2" fill="red" stroke-width="2" stroke="black" />
<circle cx="97" cy="76" r="2" fill="red" stroke-width="2" stroke="black" />
<circle cx="98" cy="48" r="2" fill="red" stroke-width="2" stroke="black" />
<circle cx="99" cy="32" r="2" fill="red" stroke-width="2" stroke="black" />
<circle cx="100" cy="42" r="2" fill="red" stroke-width="2" stroke="black" />
</svg>